<svg width="258" height="116" viewBox="0 0 258 116" fill="none" xmlns="http://www.w3.org/2000/svg">
<mask id="mask0_158_3364" style="mask-type:alpha" maskUnits="userSpaceOnUse" x="0" y="0" width="258" height="116">
<rect width="258" height="116" fill="#C4C4C4" fill-opacity="0.99"/>
</mask>
<g mask="url(#mask0_158_3364)">
</g>
<g clip-path="url(#clip0_158_3364)">
<path d="M8.00861 74.2478H0V27H8.00861V47.8057L27.8538 27.0169L37.4287 27L16.2312 49.3385L38.472 74.2503L28.8704 74.2261L8.00861 51.0741V74.2478Z" fill="black"/>
<path d="M42.207 33.0605H48.9437V39.6264H42.207V33.0605ZM48.8659 74.247H42.2386V42.6632H48.8659V74.247Z" fill="black"/>
<path d="M85.7714 74.2473H79.2147V55.3607C79.2147 52.6354 78.4973 50.4966 77.0624 48.9517C75.6275 47.402 73.643 46.6271 71.104 46.6271C67.7186 46.6271 65.0993 47.793 63.2437 50.1273C61.3856 52.4591 60.459 55.7928 60.459 60.1282V74.2497H53.9023V42.6634H60.2475V47.8654C61.3297 46.0067 62.9397 44.5511 65.0774 43.4986C67.2152 42.4437 69.7201 41.9199 72.5851 41.9199C76.863 41.9199 80.1292 43.0955 82.3861 45.4491C84.643 47.8027 85.7714 51.1291 85.7714 55.421V74.2473V74.2473Z" fill="black"/>
<path d="M115.468 69.2939C113.916 70.9064 112.119 72.1351 110.074 72.98C108.028 73.8248 105.83 74.2473 103.48 74.2473C98.7331 74.2473 94.9488 72.8013 92.1301 69.9118C89.309 67.0248 87.8984 63.2035 87.8984 58.4553C87.8984 53.4995 89.416 49.5069 92.4463 46.4702C95.479 43.4359 99.5332 41.9199 104.609 41.9199C106.866 41.9199 108.816 42.2724 110.463 42.9724C112.484 43.839 114.152 45.3067 115.468 47.3706V42.6634H122.024V71.8937C122.024 77.5085 120.521 81.5977 117.515 84.1564C114.51 86.7176 109.791 87.997 103.359 87.997C100.589 87.997 97.8673 87.7073 95.1896 87.1304C93.2172 86.7176 91.7143 86.2638 90.6807 85.769L91.3859 80.3811C92.2299 80.9194 93.779 81.4963 96.0335 82.1167C98.9422 82.8988 101.688 83.2923 104.271 83.2923C107.603 83.2923 110.302 82.3629 112.367 80.5066C114.432 78.6503 115.465 76.1301 115.465 72.951V69.2939H115.468ZM115.468 58.395C115.468 55.0107 114.507 52.2033 112.586 49.9728C110.664 47.7423 108.206 46.6295 105.207 46.6295C102.208 46.6295 99.7496 47.7327 97.8283 49.9414C95.9071 52.1502 94.9464 54.9672 94.9464 58.395C94.9464 61.6152 95.8827 64.2802 97.7578 66.3851C99.6305 68.49 102.065 69.5449 105.066 69.5449C108.016 69.5449 110.487 68.4828 112.479 66.3561C114.471 64.2295 115.468 61.5741 115.468 58.395Z" fill="black"/>
<path d="M151.738 69.5434C150.279 71.3394 148.504 72.6984 146.414 73.6157C144.323 74.5354 142.1 74.9941 139.751 74.9941C134.816 74.9941 130.94 73.425 128.118 70.2869C125.297 67.1488 123.887 62.9389 123.887 57.6524C123.887 52.9477 125.297 49.1506 128.118 46.2587C130.94 43.3668 134.675 41.9233 139.328 41.9233C141.867 41.9233 143.956 42.2105 145.605 42.7874C147.767 43.5333 149.715 44.9358 151.456 46.9997V31.0195H158.154V74.2482H151.738V69.5434ZM151.454 58.4563V58.0845C151.454 54.6591 150.456 51.8928 148.465 49.7854C146.478 47.6805 144.004 46.6304 141.057 46.6304C137.871 46.6304 135.388 47.6829 133.607 49.7878C131.827 51.8928 130.94 54.7654 130.94 58.3959C130.94 61.8237 131.876 64.6625 133.749 66.9098C135.621 69.162 138.009 70.2845 140.916 70.2845C144.055 70.2845 146.592 69.1596 148.54 66.9098C150.481 64.6625 151.454 61.843 151.454 58.4563Z" fill="black"/>
<path d="M250.948 74.2477H244.391V55.9163C244.391 49.7246 242.229 46.6251 237.903 46.6251C231.604 46.6251 228.457 51.1271 228.457 60.1287V74.2477H221.898V55.9163C221.898 49.7246 219.714 46.6251 215.341 46.6251C212.381 46.6251 210.076 47.7911 208.431 50.1253C206.785 52.4572 205.963 55.7908 205.963 60.1262V74.2477H199.406V42.6639H205.751V47.4338C206.644 45.6982 208.018 44.3488 209.874 43.376C211.729 42.408 213.976 41.9204 216.61 41.9204C219.288 41.9204 221.569 42.4756 223.449 43.5908C225.329 44.7061 226.645 46.2148 227.399 48.1121C228.337 46.3379 229.746 44.9137 231.628 43.837C233.788 42.5577 236.305 41.918 239.172 41.918C242.932 41.918 245.836 42.9608 247.881 45.044C249.926 47.1296 250.948 50.1157 250.948 53.9949V74.2477V74.2477Z" fill="black"/>
<path d="M196.888 58.8342C196.888 63.8624 195.179 68.0916 191.762 71.517C188.345 74.9448 184.072 76.6587 178.945 76.6587C173.862 76.6587 169.606 74.9569 166.165 71.5532C162.723 68.1496 161.004 63.9083 161.004 58.8342C161.004 53.6274 162.667 49.3547 165.992 46.0163C169.317 42.6778 173.633 41.0098 178.945 41.0098C184.164 41.0098 188.459 42.6778 191.83 46.0163C195.2 49.3571 196.888 53.6274 196.888 58.8342ZM189.959 58.8342C189.959 55.2302 188.919 52.2032 186.842 49.753C184.762 47.3053 182.131 46.0814 178.942 46.0814C175.756 46.0814 173.125 47.2836 171.043 49.6854C168.966 52.0897 167.925 55.1385 167.925 58.8318C167.925 62.5251 168.966 65.5739 171.043 67.9782C173.123 70.38 175.756 71.5822 178.942 71.5822C182.131 71.5822 184.762 70.38 186.842 67.9782C188.919 65.5763 189.959 62.5299 189.959 58.8342Z" fill="black"/>
<path d="M254.689 43.0352C255.601 43.0352 256.382 43.349 257.031 43.9742C257.681 44.5994 258.004 45.3501 258.004 46.2312C258.004 47.1123 257.683 47.863 257.041 48.4882C256.399 49.1134 255.618 49.4272 254.702 49.4272C253.79 49.4272 253.009 49.1134 252.36 48.4882C251.71 47.863 251.387 47.1123 251.387 46.2312C251.387 45.3501 251.708 44.5994 252.35 43.9742C252.992 43.3466 253.77 43.0352 254.689 43.0352ZM254.699 43.6628C253.999 43.6628 253.403 43.9138 252.909 44.4135C252.413 44.9156 252.163 45.5215 252.163 46.2288C252.163 46.9361 252.411 47.542 252.904 48.0465C253.396 48.551 253.991 48.802 254.689 48.802C255.387 48.802 255.983 48.551 256.482 48.0489C256.975 47.5468 257.224 46.9433 257.224 46.236C257.224 45.5263 256.978 44.9204 256.484 44.4183C255.991 43.9162 255.397 43.6628 254.699 43.6628ZM254.12 48.0247H253.422V44.4063H254.891C255.327 44.4063 255.657 44.5028 255.893 44.6984C256.1 44.8673 256.205 45.0942 256.205 45.3791C256.205 45.7219 256.127 45.9802 255.974 46.1612C255.823 46.3398 255.567 46.4291 255.212 46.4291L256.229 48.0296L255.509 48.0127L254.546 46.4605L254.12 46.4629V48.0247ZM254.12 45.9536H254.835C255.086 45.9536 255.259 45.9077 255.353 45.816C255.448 45.7267 255.497 45.5819 255.497 45.3863C255.497 45.2342 255.434 45.1184 255.314 45.0363C255.19 44.9566 255.023 44.918 254.809 44.918H254.12V45.9536V45.9536Z" fill="black"/>
<path d="M203.328 46.7213C203.292 46.6199 203.197 46.5523 203.088 46.5475C202.973 46.5451 191.621 46.282 185.536 47.5348C181.486 48.3676 178.369 49.6397 176.72 50.4074C178.646 48.1672 182.822 42.4438 184.349 33.5074C184.366 33.4085 184.325 33.3119 184.244 33.254C184.167 33.1985 184.06 33.1888 183.972 33.2323C183.945 33.2467 181.209 34.6299 178.85 35.2793C176.173 36.0179 171.343 38.1156 170.231 41.2924C169.37 43.757 169.489 45.4274 169.567 46.5354C169.592 46.8541 169.611 47.1268 169.604 47.361C169.599 47.5444 169.604 47.7786 169.611 48.0441C169.643 49.2752 169.696 51.3126 168.641 52.7778C167.867 52.5534 164.832 51.6843 164.136 51.525C164.034 51.5033 163.935 51.4792 163.84 51.4574C163.186 51.2981 162.568 51.1484 161.763 51.6288C161.055 52.0537 160.172 52.9179 159.973 54.6221C159.829 55.8097 159.292 57.1881 158.212 57.4923C158.093 57.526 158.013 57.6371 158.02 57.7578C158.027 57.8809 158.122 57.9823 158.244 57.9992C158.302 58.0088 159.688 58.2019 161.196 58.1344L161.593 58.1126C162.804 58.0402 163.358 58.0088 164.852 59.3944C166.303 60.739 166.615 62.5615 166.916 64.3237C166.963 64.5844 167.006 64.8451 167.052 65.101C167.301 66.4214 168.057 70.4406 174.526 71.2637C180.215 71.9855 180.723 73.8732 181.214 75.6981C181.584 77.0668 182.79 79.4083 184.444 79.8573C184.631 79.908 184.813 79.9321 184.998 79.9321C185.604 79.9321 186.195 79.657 186.759 79.1066C189.142 76.7916 190.349 75.7295 190.358 75.7198C190.451 75.6402 190.473 75.5074 190.414 75.4012C190.356 75.295 188.945 72.7266 184.77 69.2312C180.82 65.9265 179.405 63.2157 178.485 60.9152C179.677 61.1276 182.865 61.579 185.353 60.8911C188.513 60.0148 190.405 59.071 193.946 55.4983C197.501 51.9064 203.197 47.052 203.253 47.0037C203.336 46.9361 203.367 46.8227 203.328 46.7213Z" fill="black"/>
<path d="M169.016 53.7411C169.016 53.7411 170.583 52.7948 170.446 48.5922C170.308 44.3895 170.276 42.7794 171.706 40.3969C173.134 38.0167 178.377 36.3342 178.545 36.2642C178.715 36.1942 182.796 34.9004 183.309 34.5117C183.309 34.5117 183.173 37.1043 180.381 43.0232C177.589 48.9398 174.902 51.7086 171.908 52.8624C171.908 52.8624 171.806 53.5069 172.236 53.5962C172.236 53.5962 178.92 50.1661 183.377 48.906C187.835 47.6459 198.149 47.1897 201.486 47.3997C201.486 47.3997 198.694 49.676 195.255 53.1086C191.816 56.5412 189.027 59.0614 185.86 59.9376C182.696 60.8115 178.883 60.1477 177.115 59.7976C177.115 59.7976 178.647 64.9779 182.765 68.5892C186.879 72.1956 188.244 73.5619 189.399 75.3482L186.031 78.6046C186.031 78.6046 185.52 79.2708 184.635 78.957C183.752 78.6408 182.765 77.4869 182.152 75.6644C181.539 73.8443 181.235 72.7218 179.598 71.8842C177.966 71.0417 176.434 70.6579 173.948 70.2741C171.463 69.8879 169.046 68.9778 168.061 65.5814C167.076 62.185 167.825 62.5688 166.494 60.1525C165.166 57.7361 163.092 57.1037 162.002 57.1761C160.913 57.2461 159.848 57.292 159.848 57.292C159.848 57.292 160.504 56.8285 160.913 54.5498C161.321 52.2734 162.513 52.1334 163.294 52.2734C164.079 52.411 169.016 53.7411 169.016 53.7411Z" fill="white"/>
</g>
<defs>
<clipPath id="clip0_158_3364">
<rect width="258" height="61" fill="white" transform="translate(0 27)"/>
</clipPath>
</defs>
</svg>
