<svg width="258" height="116" viewBox="0 0 258 116" fill="none" xmlns="http://www.w3.org/2000/svg">
<mask id="mask0_157_3300" style="mask-type:alpha" maskUnits="userSpaceOnUse" x="0" y="0" width="258" height="116">
<rect width="258" height="116" fill="#C4C4C4" fill-opacity="0.99"/>
</mask>
<g mask="url(#mask0_157_3300)">
</g>
<g clip-path="url(#clip0_157_3300)">
<path d="M22.9721 30V36.7426C21.0819 37.0904 19.1953 37.3165 17.3973 37.8243C12.3489 39.2522 9.06222 42.5322 7.75986 47.3374C7.15933 49.5513 7.28776 51.9704 7.27871 54.2939C7.25701 59.3652 7.36011 64.4365 7.41076 69.5078C7.41076 69.9096 7.41076 70.3113 7.41076 70.8661H0.255044L0 64.447V52.3304C0.0615001 51.3565 0.110338 50.3809 0.180883 49.4087C0.255044 48.4643 0.238765 47.4957 0.470295 46.5809C2.50522 38.6348 7.5627 33.3757 15.8037 31.0661C17.6053 30.56 19.4955 30.3478 21.3441 30H22.9721Z" fill="#009DDD"/>
<path d="M222.976 86.0002H215.795V82.4506C215.795 76.1236 215.758 69.7967 215.805 63.4715C215.836 59.1984 215.919 54.9236 216.095 50.6541C216.303 45.5619 218.792 41.4732 222.721 38.2245C227.771 34.0506 233.677 32.3897 240.349 33.1393C245.038 33.661 249.147 35.3375 252.503 38.4958C256.361 42.1271 258.067 46.6506 258 51.7915C257.94 56.4123 256.734 60.6871 253.623 64.3393C250.262 68.2941 245.845 70.5532 240.679 71.4993C238.893 71.8262 237.048 71.8471 235.149 72.021V65.0645C236.446 64.9706 237.752 64.9949 239.007 64.7636C244.211 63.7984 248.321 61.4193 250.03 56.3115C251.296 52.548 251.061 48.8332 248.916 45.3775C246.984 42.2471 244.012 40.6088 240.293 40.1688C237.462 39.821 234.65 39.6888 231.935 40.828C228.936 42.0854 226.411 43.8523 224.699 46.5984C223.711 48.1938 223.19 50.0163 223.191 51.8732C223.09 60.9706 223.037 70.0662 222.976 79.1636C222.963 81.4106 222.976 83.6575 222.976 86.0002Z" fill="#009DDD"/>
<path d="M28.7617 52.0641C28.7617 41.6676 37.5436 33.1632 48.297 33.1562C59.32 33.1562 68.167 41.6049 68.1598 52.1406C68.1598 62.5023 59.2621 70.9632 48.3947 70.9493C45.8152 70.9511 43.2606 70.4638 40.8772 69.5153C38.4937 68.5668 36.3282 67.1756 34.5047 65.4215C32.6811 63.6674 31.2352 61.5847 30.2497 59.2926C29.2643 57.0006 28.7586 54.5442 28.7617 52.0641V52.0641ZM35.997 52.0467C36.0187 58.7702 41.5574 64.0467 48.5702 64.0171C55.3551 63.9928 60.9498 58.5928 60.9444 52.0762C60.9444 45.4293 55.3026 40.0762 48.3296 40.0884C41.5465 40.1006 35.9645 45.5128 35.9862 52.0467H35.997Z" fill="#009DDD"/>
<path d="M202.259 32.957H209.462V51.0927C209.485 61.0336 202.709 68.8318 192.497 70.637C183.149 72.2927 173.323 67.1205 169.874 58.7431C169.017 56.7051 168.564 54.5309 168.539 52.3327C168.504 46.0927 168.526 39.8509 168.528 33.6109C168.528 33.437 168.55 33.2631 168.564 32.957H175.818V34.0162C175.752 39.8231 175.854 45.6318 175.727 51.437C175.586 57.8579 180.75 63.4509 188.146 63.9588C194.821 64.4196 200.863 60.1727 202.044 53.6301C202.319 52.1083 202.266 50.5222 202.273 48.9657C202.291 44.0249 202.273 39.084 202.259 34.1449V32.957Z" fill="#009DDD"/>
<path d="M73.7589 32.334H80.9852V33.3635C80.9852 39.2853 81.0992 45.2088 80.9526 51.1253C80.8134 56.8175 85.5814 62.3862 92.3482 63.1566C98.1871 63.8227 102.693 61.7253 105.75 56.8957C106.854 55.132 107.423 53.1069 107.394 51.0488V33.4592V32.334H114.629V35.007C114.591 40.3218 114.595 45.6366 114.591 50.9514C114.591 60.9131 106.68 69.3375 96.3403 70.1462C87.3468 70.8418 80.4227 67.4331 75.8843 59.8853C74.4847 57.5786 73.7434 54.9575 73.7354 52.287C73.7029 45.8522 73.7191 39.4053 73.7173 32.9653C73.7173 32.7931 73.7589 32.334 73.7589 32.334Z" fill="#009DDD"/>
<path d="M162.434 70.696H155.253C155.235 70.4334 155.209 70.2108 155.209 69.9882C155.209 64.2085 155.209 58.43 155.209 52.6526C155.209 45.8578 150.624 40.6526 143.6 39.8334C136.414 39.0004 130.119 43.4752 128.907 49.7291C128.777 50.4987 128.719 51.2782 128.735 52.0578C128.721 57.9511 128.721 63.8456 128.735 69.7413C128.735 70.5169 128.554 70.7969 127.69 70.7656C125.881 70.6995 124.072 70.7343 122.263 70.7534C121.76 70.7534 121.486 70.67 121.487 70.0978C121.509 63.7134 121.41 57.3256 121.547 50.943C121.672 45.2613 124.371 40.7152 128.916 37.1656C137.094 30.79 149.356 31.4595 156.696 38.6961C160.469 42.4178 162.385 46.9326 162.423 52.1274C162.468 57.9343 162.434 63.743 162.434 69.55V70.696Z" fill="#009DDD"/>
</g>
<defs>
<clipPath id="clip0_157_3300">
<rect width="258" height="56" fill="white" transform="translate(0 30)"/>
</clipPath>
</defs>
</svg>
