<svg width="258" height="116" viewBox="0 0 258 116" fill="none" xmlns="http://www.w3.org/2000/svg">
<rect width="258" height="116" fill="#C4C4C4" fill-opacity="0.01"/>
<path d="M76.9795 59.2243C75.8711 59.2243 74.7244 59.1864 73.616 59.2243C72.928 59.2623 72.6604 59.0348 72.7369 58.3523C72.7751 57.8594 72.7369 57.4044 72.7369 56.7598C73.96 56.7598 75.1067 56.7219 76.2533 56.7598C76.8649 56.7977 77.0942 56.5702 77.1707 55.9635C77.8587 49.2902 83.5538 43.6407 90.2809 42.9582C91.0071 42.8824 91.1982 42.617 91.16 41.9345C91.1218 41.0624 91.16 40.1903 91.1218 39.3182C91.0835 38.7874 91.3129 38.522 91.848 38.5978C91.9244 38.5978 91.9627 38.5978 92.0391 38.5978C93.568 38.5599 93.568 38.5599 93.568 40.0766C93.568 40.759 93.6062 41.4795 93.568 42.162C93.5298 42.6928 93.7209 42.8824 94.2942 42.9582C101.289 43.8682 106.602 49.2144 107.443 56.0773C107.481 56.2669 107.519 56.4944 107.596 56.7219C109.01 56.7219 110.424 56.7219 111.876 56.7219C111.876 57.556 111.876 58.3144 111.876 59.1864C110.73 59.1864 109.621 59.2243 108.475 59.1864C107.748 59.1485 107.443 59.3002 107.328 60.1343C106.143 66.7697 101.136 71.5472 94.4089 72.533C94.1795 72.5709 93.9502 72.6468 93.6062 72.7226C93.6062 73.8222 93.568 74.9597 93.6062 76.0592C93.6444 76.7417 93.4915 77.0451 92.7271 77.0071C90.9307 76.9313 91.1982 77.1967 91.16 75.4526C91.16 74.6184 91.16 73.7463 91.1218 72.9122C91.1218 72.8743 91.0835 72.7984 91.0453 72.7226C83.2098 71.5472 78.4702 67.1489 76.9795 59.2243ZM81.872 59.2243C82.2542 64.1914 87.1084 68.2105 91.1982 68.1726C91.1982 65.9735 91.1982 63.7364 91.1982 61.5752C92.0391 61.5752 92.8035 61.5752 93.6062 61.5752C93.6062 63.7743 93.6062 65.9735 93.6062 68.1726C97.8489 68.021 102.474 63.4331 102.55 59.1864C100.333 59.1864 98.1547 59.1864 95.976 59.1864C95.976 58.3144 95.976 57.5939 95.976 56.7598C98.1547 56.7598 100.372 56.7598 102.588 56.7598C102.741 52.4373 97.8871 47.3944 93.5298 47.3944C93.5298 49.5936 93.5298 51.7548 93.5298 53.916C92.6889 53.916 91.9627 53.916 91.1218 53.916C91.1218 51.679 91.1218 49.5177 91.1218 47.3186C86.5733 47.3565 81.6809 52.3236 81.7955 56.7598C84.0507 56.7598 86.344 56.7598 88.6373 56.7598C88.6373 57.6319 88.6373 58.3902 88.6373 59.2243C86.344 59.2243 84.1271 59.2243 81.872 59.2243Z" fill="black"/>
<path d="M0 71.1301C0 69.4997 0 67.983 0 66.3147C0.382222 66.3147 0.726222 66.3147 1.07022 66.3147C8.52355 66.3147 15.9769 66.3147 23.4302 66.3147C24.0418 66.3147 24.6533 66.2768 25.2649 66.1631C26.3351 65.9735 27.0996 65.1393 27.2142 64.1535C27.3289 63.1297 26.8702 62.1818 25.7618 61.7647C24.6533 61.3856 23.4684 61.0822 22.3218 60.9685C17.7351 60.5514 13.1484 60.2102 8.52355 59.831C6.34489 59.6414 4.24267 59.2243 2.44622 57.8214C-0.917334 55.2052 -0.649778 49.1765 2.98133 46.9015C4.62489 45.8778 6.45955 45.3469 8.37067 45.3469C15.7858 45.2711 23.2009 45.309 30.6542 45.2711C30.7689 45.2711 30.8836 45.309 31.0747 45.3469C31.0747 46.8636 31.0747 48.3423 31.0747 50.0107C30.7307 50.0107 30.3867 50.0107 30.0427 50.0107C23.2009 50.0107 16.3591 50.0107 9.51733 50.0107C8.75289 50.0107 7.912 50.1244 7.18578 50.314C6.07733 50.6173 5.65689 51.2619 5.65689 52.2856C5.65689 53.4231 6.03911 54.0677 7.224 54.3331C8.75289 54.6744 10.2818 54.9019 11.8107 55.0535C16.0151 55.4706 20.2196 55.736 24.3858 56.191C25.9147 56.4185 27.52 56.8735 28.9724 57.5181C32.0302 58.8452 32.9093 61.4614 32.7182 64.5326C32.5271 67.4522 30.9218 69.4618 28.1698 70.2959C26.2969 70.8647 24.2711 71.1301 22.3218 71.1301C15.0213 71.2439 7.72089 71.168 0.420444 71.168C0.305777 71.168 0.191111 71.168 0 71.1301Z" fill="black"/>
<path d="M63.7929 60.6652C56.416 60.6652 49.2302 60.6652 41.9298 60.6652C41.9298 64.1914 41.9298 67.6418 41.9298 71.168C40.1333 71.168 38.4133 71.168 36.6551 71.168C36.6551 62.5231 36.6551 53.8781 36.6551 45.2332C38.4133 45.2332 40.0951 45.2332 41.8915 45.2332C41.8915 48.7215 41.8915 52.1719 41.8915 55.6981C49.2302 55.6981 56.4542 55.6981 63.7164 55.6981C63.7164 52.2098 63.7164 48.7594 63.7164 45.2711C65.5129 45.2711 67.2329 45.2711 68.9911 45.2711C68.9911 53.9161 68.9911 62.5231 68.9911 71.2059C67.2711 71.2059 65.5511 71.2059 63.7546 71.2059C63.7929 67.7176 63.7929 64.2293 63.7929 60.6652Z" fill="black"/>
<path d="M258 45.1194C258 53.8402 258 62.3335 258 70.8647C257.924 70.9026 257.847 70.9784 257.809 70.9784C255.324 71.2059 255.324 71.2059 255.324 68.7414C255.324 62.2956 255.324 55.8498 255.324 49.4419C255.324 49.1007 255.324 48.7973 255.324 48.1527C254.904 48.5698 254.675 48.7594 254.484 48.9869C250.05 54.1435 245.616 59.3002 241.144 64.4189C240.303 65.3668 238.507 65.3668 237.666 64.381C233.194 59.2243 228.722 54.0298 224.288 48.8732C224.135 48.6836 223.982 48.494 223.638 48.3802C223.638 55.8877 223.638 63.3572 223.638 70.9405C222.683 70.9405 221.842 70.9405 220.886 70.9405C220.886 70.5614 220.886 70.258 220.886 69.9168C220.886 62.0302 220.886 54.1435 220.886 46.2569C220.886 45.4228 221.077 45.0057 221.995 45.1194C222.453 45.1953 222.912 45.1573 223.371 45.1194C224.288 45.0815 224.976 45.4607 225.588 46.1811C229.945 51.2619 234.302 56.3048 238.698 61.3477C238.927 61.6131 239.195 61.8785 239.5 62.2197C240.724 60.8168 241.908 59.4898 243.055 58.1248C246.495 54.1435 249.935 50.1623 253.337 46.1811C253.948 45.4607 254.675 45.0436 255.63 45.0815C256.395 45.1573 257.159 45.1194 258 45.1194Z" fill="black"/>
<path d="M143.639 45.2332C143.639 46.8636 143.639 48.4182 143.639 50.0107C139.396 50.0107 135.192 50.0107 130.873 50.0107C130.873 57.0631 130.873 64.0777 130.873 71.0922C129.038 71.0922 127.356 71.0922 125.56 71.0922C125.56 64.0777 125.56 57.139 125.56 50.0486C121.203 50.0486 116.96 50.0486 112.603 50.0486C112.603 48.494 112.603 47.0532 112.641 45.6124C112.641 45.4607 112.908 45.309 113.1 45.1953C113.214 45.1194 113.405 45.1953 113.558 45.1953C123.343 45.1953 133.128 45.1953 142.875 45.1953C143.104 45.1953 143.333 45.1953 143.639 45.2332Z" fill="black"/>
<path d="M180.715 70.9784C182.396 67.528 183.964 64.3051 185.531 61.0822C187.365 57.2906 189.238 53.461 191.111 49.6694C191.455 48.9869 191.876 48.3802 192.296 47.7357C194.895 43.6786 201.622 43.6407 204.183 47.7736C205.597 50.0486 206.744 52.5131 207.929 54.9019C210.413 59.9827 212.86 65.0635 215.344 70.1443C215.459 70.3718 215.535 70.5993 215.688 70.9784C214.771 70.9784 213.93 71.0164 213.089 70.9405C212.86 70.9026 212.592 70.5614 212.439 70.2959C211.407 68.1726 210.375 66.0493 209.343 63.926C209.114 63.4331 208.808 63.2056 208.235 63.2056C201.546 63.2435 194.857 63.2056 188.168 63.2056C187.633 63.2056 187.365 63.3951 187.136 63.8501C186.142 65.9735 185.072 68.0968 184.078 70.2201C183.811 70.7509 183.543 71.0163 182.893 70.9784C182.244 70.9405 181.556 70.9784 180.715 70.9784ZM207.738 60.7031C206.935 59.0348 206.247 57.4802 205.483 56.0014C204.336 53.6885 203.189 51.3377 201.928 49.0627C200.476 46.5223 195.965 46.5223 194.398 49.1386C194.092 49.6315 193.787 50.1244 193.519 50.6173C192.028 53.6885 190.538 56.7598 189.047 59.831C188.932 60.0964 188.856 60.3618 188.703 60.6652C195.124 60.7031 201.316 60.7031 207.738 60.7031Z" fill="black"/>
<path d="M165.808 57.7456C169.172 59.1106 171.312 61.4993 173.3 64.1156C174.828 66.1251 176.472 68.0968 178.039 70.1064C178.23 70.3339 178.383 70.5614 178.689 70.9784C177.466 70.9784 176.396 71.0164 175.364 70.9405C175.096 70.9405 174.79 70.5993 174.599 70.3718C172.344 67.6039 170.127 64.7981 167.872 61.9923C166.114 59.831 163.82 58.921 161.03 58.9969C158.049 59.0727 155.029 58.9969 152.048 58.9969C151.704 58.9969 151.398 58.9969 150.978 58.9969C150.94 59.4139 150.94 59.7931 150.94 60.1343C150.94 63.3572 150.901 66.6181 150.978 69.8409C150.978 70.713 150.748 71.0164 149.869 70.9784C148.149 70.8647 148.226 71.2818 148.226 69.386C148.226 61.5752 148.226 53.7265 148.226 45.9157C148.226 45.1953 148.493 45.0436 149.143 45.0815C151.322 45.1194 150.94 44.9299 150.978 46.8257C151.016 49.7073 150.978 52.5511 150.978 55.4327C150.978 55.774 150.978 56.0773 150.978 56.4944C151.36 56.5323 151.666 56.5323 151.933 56.5323C154.838 56.5323 157.743 56.4944 160.648 56.5323C164.05 56.6081 166.687 55.2431 168.713 52.5131C170.433 50.1244 172.229 47.8115 174.026 45.4986C174.255 45.2332 174.676 45.0057 175.058 44.9678C175.975 44.8919 176.892 44.9299 177.963 44.9299C177.772 45.2332 177.657 45.4607 177.504 45.6503C175.325 48.4182 173.147 51.1861 170.93 53.9161C169.592 55.5844 167.987 56.8735 165.808 57.7456Z" fill="black"/>
</svg>
